<?xml version="1.0"?>
<!-- Generated by SVGo and Plotinum VG -->
<svg width="384pt" height="384pt" viewBox="0 0 384 384"
	xmlns="http://www.w3.org/2000/svg"
	xmlns:xlink="http://www.w3.org/1999/xlink">
<g transform="scale(1, -1) translate(0, -384)">
<path d="M0,0L384,0L384,384L0,384Z" style="fill:#FFFFFF" />
<text x="206.05" y="-3.8613" transform="scale(1, -1)"
	style="font-family:Times;font-weight:normal;font-style:normal;font-size:12px">Zr</text>
<text x="105.63" y="-15.602" transform="scale(1, -1)"
	style="font-family:Times;font-weight:normal;font-style:normal;font-size:10px">20</text>
<text x="238.57" y="-15.602" transform="scale(1, -1)"
	style="font-family:Times;font-weight:normal;font-style:normal;font-size:10px">60</text>
<text x="369" y="-15.602" transform="scale(1, -1)"
	style="font-family:Times;font-weight:normal;font-style:normal;font-size:10px">100</text>
<path d="M110.63,25.23L110.63,33.23" style="fill:none;stroke:#000000;stroke-width:0.5" />
<path d="M243.57,25.23L243.57,33.23" style="fill:none;stroke:#000000;stroke-width:0.5" />
<path d="M376.5,25.23L376.5,33.23" style="fill:none;stroke:#000000;stroke-width:0.5" />
<path d="M77.399,29.23L77.399,33.23" style="fill:none;stroke:#000000;stroke-width:0.5" />
<path d="M143.87,29.23L143.87,33.23" style="fill:none;stroke:#000000;stroke-width:0.5" />
<path d="M177.1,29.23L177.1,33.23" style="fill:none;stroke:#000000;stroke-width:0.5" />
<path d="M210.33,29.23L210.33,33.23" style="fill:none;stroke:#000000;stroke-width:0.5" />
<path d="M276.8,29.23L276.8,33.23" style="fill:none;stroke:#000000;stroke-width:0.5" />
<path d="M310.03,29.23L310.03,33.23" style="fill:none;stroke:#000000;stroke-width:0.5" />
<path d="M343.27,29.23L343.27,33.23" style="fill:none;stroke:#000000;stroke-width:0.5" />
<path d="M44.166,33.23L379.26,33.23" style="fill:none;stroke:#000000;stroke-width:0.5" />
<g transform="rotate(90)">
<text x="204.86" y="11.555" transform="scale(1, -1)"
	style="font-family:Times;font-weight:normal;font-style:normal;font-size:12px">Zi</text>
</g>
<text x="15.416" y="-103.88" transform="scale(1, -1)"
	style="font-family:Times;font-weight:normal;font-style:normal;font-size:10px">10</text>
<text x="15.416" y="-239.13" transform="scale(1, -1)"
	style="font-family:Times;font-weight:normal;font-style:normal;font-size:10px">30</text>
<text x="15.416" y="-374.37" transform="scale(1, -1)"
	style="font-family:Times;font-weight:normal;font-style:normal;font-size:10px">50</text>
<path d="M27.916,108.6L35.916,108.6" style="fill:none;stroke:#000000;stroke-width:0.5" />
<path d="M27.916,243.85L35.916,243.85" style="fill:none;stroke:#000000;stroke-width:0.5" />
<path d="M27.916,379.09L35.916,379.09" style="fill:none;stroke:#000000;stroke-width:0.5" />
<path d="M31.916,176.22L35.916,176.22" style="fill:none;stroke:#000000;stroke-width:0.5" />
<path d="M31.916,311.47L35.916,311.47" style="fill:none;stroke:#000000;stroke-width:0.5" />
<path d="M35.916,40.98L35.916,379.41" style="fill:none;stroke:#000000;stroke-width:0.5" />
<path d="M374.32,41.407L374.68,41.501L377.94,41.621L378.9,41.769L378.91,41.956L373.35,42.165L374.15,42.449L375.55,42.808L379.26,43.223L374.07,43.727L374.66,44.356L378.93,45.172L377.26,46.103L376.54,47.223L375.15,48.638L375.16,50.482L376.44,52.777L377.65,55.232L378.82,58.556L373.15,62.59L376.56,67.989L376.16,73.6L373.57,81.403L373.64,90.38L372.12,102.22L373.03,115.68L368.21,132.87L365.15,153.03L363.5,176.75L356.83,202.59L346.55,232.98L332.25,267.06L315.9,301.6L289.59,335.58L260.7,364.73L228.31,377.81L196.69,379.41L163.18,367.4L132.92,343.41L108.41,308.2L90.339,276.19L76.224,241.07L65.666,206.84L58.878,180.15L53.955,155.18L50.758,135.57L48.542,118.1L47.047,103.8L46.087,91.732L45.434,82.738L45.007,74.929L44.724,68.608L44.534,63.383L44.409,59.295L44.328,55.892L44.271,52.954L44.237,50.749L44.213,49.01L44.197,47.403L44.186,46.266L44.179,45.238L44.175,44.428L44.172,43.834L44.17,43.302L44.169,42.856L44.168,42.506L44.167,42.218L44.167,41.991L44.166,41.791L44.166,41.639L44.166,41.521L44.166,41.417L44.166,41.335L44.166,41.271L44.166,41.217L44.166,41.169L44.166,41.134L44.166,41.106L44.166,41.082L44.166,41.063L44.166,41.047L44.166,41.034L44.166,41.024L44.166,41.016L44.166,41.009L44.166,41.003L44.166,40.999L44.166,40.995L44.166,40.992L44.166,40.99L44.166,40.988L44.166,40.986L44.166,40.985L44.166,40.984L44.166,40.983L44.166,40.982L44.166,40.982L44.166,40.981L44.166,40.981L44.166,40.98" style="fill:none;stroke:#F15A60" />
<path d="M376.82,41.407A2.5,2.5 0 1 1 371.82,41.407A2.5,2.5 0 1 1 376.82,41.407Z" style="fill:none;stroke:#F15A60;stroke-width:0.5" />
<path d="M377.18,41.501A2.5,2.5 0 1 1 372.18,41.501A2.5,2.5 0 1 1 377.18,41.501Z" style="fill:none;stroke:#F15A60;stroke-width:0.5" />
<path d="M380.44,41.621A2.5,2.5 0 1 1 375.44,41.621A2.5,2.5 0 1 1 380.44,41.621Z" style="fill:none;stroke:#F15A60;stroke-width:0.5" />
<path d="M381.4,41.769A2.5,2.5 0 1 1 376.4,41.769A2.5,2.5 0 1 1 381.4,41.769Z" style="fill:none;stroke:#F15A60;stroke-width:0.5" />
<path d="M381.41,41.956A2.5,2.5 0 1 1 376.41,41.956A2.5,2.5 0 1 1 381.41,41.956Z" style="fill:none;stroke:#F15A60;stroke-width:0.5" />
<path d="M375.85,42.165A2.5,2.5 0 1 1 370.85,42.165A2.5,2.5 0 1 1 375.85,42.165Z" style="fill:none;stroke:#F15A60;stroke-width:0.5" />
<path d="M376.65,42.449A2.5,2.5 0 1 1 371.65,42.449A2.5,2.5 0 1 1 376.65,42.449Z" style="fill:none;stroke:#F15A60;stroke-width:0.5" />
<path d="M378.05,42.808A2.5,2.5 0 1 1 373.05,42.808A2.5,2.5 0 1 1 378.05,42.808Z" style="fill:none;stroke:#F15A60;stroke-width:0.5" />
<path d="M381.76,43.223A2.5,2.5 0 1 1 376.76,43.223A2.5,2.5 0 1 1 381.76,43.223Z" style="fill:none;stroke:#F15A60;stroke-width:0.5" />
<path d="M376.57,43.727A2.5,2.5 0 1 1 371.57,43.727A2.5,2.5 0 1 1 376.57,43.727Z" style="fill:none;stroke:#F15A60;stroke-width:0.5" />
<path d="M377.16,44.356A2.5,2.5 0 1 1 372.16,44.356A2.5,2.5 0 1 1 377.16,44.356Z" style="fill:none;stroke:#F15A60;stroke-width:0.5" />
<path d="M381.43,45.172A2.5,2.5 0 1 1 376.43,45.172A2.5,2.5 0 1 1 381.43,45.172Z" style="fill:none;stroke:#F15A60;stroke-width:0.5" />
<path d="M379.76,46.103A2.5,2.5 0 1 1 374.76,46.103A2.5,2.5 0 1 1 379.76,46.103Z" style="fill:none;stroke:#F15A60;stroke-width:0.5" />
<path d="M379.04,47.223A2.5,2.5 0 1 1 374.04,47.223A2.5,2.5 0 1 1 379.04,47.223Z" style="fill:none;stroke:#F15A60;stroke-width:0.5" />
<path d="M377.65,48.638A2.5,2.5 0 1 1 372.65,48.638A2.5,2.5 0 1 1 377.65,48.638Z" style="fill:none;stroke:#F15A60;stroke-width:0.5" />
<path d="M377.66,50.482A2.5,2.5 0 1 1 372.66,50.482A2.5,2.5 0 1 1 377.66,50.482Z" style="fill:none;stroke:#F15A60;stroke-width:0.5" />
<path d="M378.94,52.777A2.5,2.5 0 1 1 373.94,52.777A2.5,2.5 0 1 1 378.94,52.777Z" style="fill:none;stroke:#F15A60;stroke-width:0.5" />
<path d="M380.15,55.232A2.5,2.5 0 1 1 375.15,55.232A2.5,2.5 0 1 1 380.15,55.232Z" style="fill:none;stroke:#F15A60;stroke-width:0.5" />
<path d="M381.32,58.556A2.5,2.5 0 1 1 376.32,58.556A2.5,2.5 0 1 1 381.32,58.556Z" style="fill:none;stroke:#F15A60;stroke-width:0.5" />
<path d="M375.65,62.59A2.5,2.5 0 1 1 370.65,62.59A2.5,2.5 0 1 1 375.65,62.59Z" style="fill:none;stroke:#F15A60;stroke-width:0.5" />
<path d="M379.06,67.989A2.5,2.5 0 1 1 374.06,67.989A2.5,2.5 0 1 1 379.06,67.989Z" style="fill:none;stroke:#F15A60;stroke-width:0.5" />
<path d="M378.66,73.6A2.5,2.5 0 1 1 373.66,73.6A2.5,2.5 0 1 1 378.66,73.6Z" style="fill:none;stroke:#F15A60;stroke-width:0.5" />
<path d="M376.07,81.403A2.5,2.5 0 1 1 371.07,81.403A2.5,2.5 0 1 1 376.07,81.403Z" style="fill:none;stroke:#F15A60;stroke-width:0.5" />
<path d="M376.14,90.38A2.5,2.5 0 1 1 371.14,90.38A2.5,2.5 0 1 1 376.14,90.38Z" style="fill:none;stroke:#F15A60;stroke-width:0.5" />
<path d="M374.62,102.22A2.5,2.5 0 1 1 369.62,102.22A2.5,2.5 0 1 1 374.62,102.22Z" style="fill:none;stroke:#F15A60;stroke-width:0.5" />
<path d="M375.53,115.68A2.5,2.5 0 1 1 370.53,115.68A2.5,2.5 0 1 1 375.53,115.68Z" style="fill:none;stroke:#F15A60;stroke-width:0.5" />
<path d="M370.71,132.87A2.5,2.5 0 1 1 365.71,132.87A2.5,2.5 0 1 1 370.71,132.87Z" style="fill:none;stroke:#F15A60;stroke-width:0.5" />
<path d="M367.65,153.03A2.5,2.5 0 1 1 362.65,153.03A2.5,2.5 0 1 1 367.65,153.03Z" style="fill:none;stroke:#F15A60;stroke-width:0.5" />
<path d="M366,176.75A2.5,2.5 0 1 1 361,176.75A2.5,2.5 0 1 1 366,176.75Z" style="fill:none;stroke:#F15A60;stroke-width:0.5" />
<path d="M359.33,202.59A2.5,2.5 0 1 1 354.33,202.59A2.5,2.5 0 1 1 359.33,202.59Z" style="fill:none;stroke:#F15A60;stroke-width:0.5" />
<path d="M349.05,232.98A2.5,2.5 0 1 1 344.05,232.98A2.5,2.5 0 1 1 349.05,232.98Z" style="fill:none;stroke:#F15A60;stroke-width:0.5" />
<path d="M334.75,267.06A2.5,2.5 0 1 1 329.75,267.06A2.5,2.5 0 1 1 334.75,267.06Z" style="fill:none;stroke:#F15A60;stroke-width:0.5" />
<path d="M318.4,301.6A2.5,2.5 0 1 1 313.4,301.6A2.5,2.5 0 1 1 318.4,301.6Z" style="fill:none;stroke:#F15A60;stroke-width:0.5" />
<path d="M292.09,335.58A2.5,2.5 0 1 1 287.09,335.58A2.5,2.5 0 1 1 292.09,335.58Z" style="fill:none;stroke:#F15A60;stroke-width:0.5" />
<path d="M263.2,364.73A2.5,2.5 0 1 1 258.2,364.73A2.5,2.5 0 1 1 263.2,364.73Z" style="fill:none;stroke:#F15A60;stroke-width:0.5" />
<path d="M230.81,377.81A2.5,2.5 0 1 1 225.81,377.81A2.5,2.5 0 1 1 230.81,377.81Z" style="fill:none;stroke:#F15A60;stroke-width:0.5" />
<path d="M199.19,379.41A2.5,2.5 0 1 1 194.19,379.41A2.5,2.5 0 1 1 199.19,379.41Z" style="fill:none;stroke:#F15A60;stroke-width:0.5" />
<path d="M165.68,367.4A2.5,2.5 0 1 1 160.68,367.4A2.5,2.5 0 1 1 165.68,367.4Z" style="fill:none;stroke:#F15A60;stroke-width:0.5" />
<path d="M135.42,343.41A2.5,2.5 0 1 1 130.42,343.41A2.5,2.5 0 1 1 135.42,343.41Z" style="fill:none;stroke:#F15A60;stroke-width:0.5" />
<path d="M110.91,308.2A2.5,2.5 0 1 1 105.91,308.2A2.5,2.5 0 1 1 110.91,308.2Z" style="fill:none;stroke:#F15A60;stroke-width:0.5" />
<path d="M92.839,276.19A2.5,2.5 0 1 1 87.839,276.19A2.5,2.5 0 1 1 92.839,276.19Z" style="fill:none;stroke:#F15A60;stroke-width:0.5" />
<path d="M78.724,241.07A2.5,2.5 0 1 1 73.724,241.07A2.5,2.5 0 1 1 78.724,241.07Z" style="fill:none;stroke:#F15A60;stroke-width:0.5" />
<path d="M68.166,206.84A2.5,2.5 0 1 1 63.166,206.84A2.5,2.5 0 1 1 68.166,206.84Z" style="fill:none;stroke:#F15A60;stroke-width:0.5" />
<path d="M61.378,180.15A2.5,2.5 0 1 1 56.378,180.15A2.5,2.5 0 1 1 61.378,180.15Z" style="fill:none;stroke:#F15A60;stroke-width:0.5" />
<path d="M56.455,155.18A2.5,2.5 0 1 1 51.455,155.18A2.5,2.5 0 1 1 56.455,155.18Z" style="fill:none;stroke:#F15A60;stroke-width:0.5" />
<path d="M53.258,135.57A2.5,2.5 0 1 1 48.258,135.57A2.5,2.5 0 1 1 53.258,135.57Z" style="fill:none;stroke:#F15A60;stroke-width:0.5" />
<path d="M51.042,118.1A2.5,2.5 0 1 1 46.042,118.1A2.5,2.5 0 1 1 51.042,118.1Z" style="fill:none;stroke:#F15A60;stroke-width:0.5" />
<path d="M49.547,103.8A2.5,2.5 0 1 1 44.547,103.8A2.5,2.5 0 1 1 49.547,103.8Z" style="fill:none;stroke:#F15A60;stroke-width:0.5" />
<path d="M48.587,91.732A2.5,2.5 0 1 1 43.587,91.732A2.5,2.5 0 1 1 48.587,91.732Z" style="fill:none;stroke:#F15A60;stroke-width:0.5" />
<path d="M47.934,82.738A2.5,2.5 0 1 1 42.934,82.738A2.5,2.5 0 1 1 47.934,82.738Z" style="fill:none;stroke:#F15A60;stroke-width:0.5" />
<path d="M47.507,74.929A2.5,2.5 0 1 1 42.507,74.929A2.5,2.5 0 1 1 47.507,74.929Z" style="fill:none;stroke:#F15A60;stroke-width:0.5" />
<path d="M47.224,68.608A2.5,2.5 0 1 1 42.224,68.608A2.5,2.5 0 1 1 47.224,68.608Z" style="fill:none;stroke:#F15A60;stroke-width:0.5" />
<path d="M47.034,63.383A2.5,2.5 0 1 1 42.034,63.383A2.5,2.5 0 1 1 47.034,63.383Z" style="fill:none;stroke:#F15A60;stroke-width:0.5" />
<path d="M46.909,59.295A2.5,2.5 0 1 1 41.909,59.295A2.5,2.5 0 1 1 46.909,59.295Z" style="fill:none;stroke:#F15A60;stroke-width:0.5" />
<path d="M46.828,55.892A2.5,2.5 0 1 1 41.828,55.892A2.5,2.5 0 1 1 46.828,55.892Z" style="fill:none;stroke:#F15A60;stroke-width:0.5" />
<path d="M46.771,52.954A2.5,2.5 0 1 1 41.771,52.954A2.5,2.5 0 1 1 46.771,52.954Z" style="fill:none;stroke:#F15A60;stroke-width:0.5" />
<path d="M46.737,50.749A2.5,2.5 0 1 1 41.737,50.749A2.5,2.5 0 1 1 46.737,50.749Z" style="fill:none;stroke:#F15A60;stroke-width:0.5" />
<path d="M46.713,49.01A2.5,2.5 0 1 1 41.713,49.01A2.5,2.5 0 1 1 46.713,49.01Z" style="fill:none;stroke:#F15A60;stroke-width:0.5" />
<path d="M46.697,47.403A2.5,2.5 0 1 1 41.697,47.403A2.5,2.5 0 1 1 46.697,47.403Z" style="fill:none;stroke:#F15A60;stroke-width:0.5" />
<path d="M46.686,46.266A2.5,2.5 0 1 1 41.686,46.266A2.5,2.5 0 1 1 46.686,46.266Z" style="fill:none;stroke:#F15A60;stroke-width:0.5" />
<path d="M46.679,45.238A2.5,2.5 0 1 1 41.679,45.238A2.5,2.5 0 1 1 46.679,45.238Z" style="fill:none;stroke:#F15A60;stroke-width:0.5" />
<path d="M46.675,44.428A2.5,2.5 0 1 1 41.675,44.428A2.5,2.5 0 1 1 46.675,44.428Z" style="fill:none;stroke:#F15A60;stroke-width:0.5" />
<path d="M46.672,43.834A2.5,2.5 0 1 1 41.672,43.834A2.5,2.5 0 1 1 46.672,43.834Z" style="fill:none;stroke:#F15A60;stroke-width:0.5" />
<path d="M46.67,43.302A2.5,2.5 0 1 1 41.67,43.302A2.5,2.5 0 1 1 46.67,43.302Z" style="fill:none;stroke:#F15A60;stroke-width:0.5" />
<path d="M46.669,42.856A2.5,2.5 0 1 1 41.669,42.856A2.5,2.5 0 1 1 46.669,42.856Z" style="fill:none;stroke:#F15A60;stroke-width:0.5" />
<path d="M46.668,42.506A2.5,2.5 0 1 1 41.668,42.506A2.5,2.5 0 1 1 46.668,42.506Z" style="fill:none;stroke:#F15A60;stroke-width:0.5" />
<path d="M46.667,42.218A2.5,2.5 0 1 1 41.667,42.218A2.5,2.5 0 1 1 46.667,42.218Z" style="fill:none;stroke:#F15A60;stroke-width:0.5" />
<path d="M46.667,41.991A2.5,2.5 0 1 1 41.667,41.991A2.5,2.5 0 1 1 46.667,41.991Z" style="fill:none;stroke:#F15A60;stroke-width:0.5" />
<path d="M46.666,41.791A2.5,2.5 0 1 1 41.666,41.791A2.5,2.5 0 1 1 46.666,41.791Z" style="fill:none;stroke:#F15A60;stroke-width:0.5" />
<path d="M46.666,41.639A2.5,2.5 0 1 1 41.666,41.639A2.5,2.5 0 1 1 46.666,41.639Z" style="fill:none;stroke:#F15A60;stroke-width:0.5" />
<path d="M46.666,41.521A2.5,2.5 0 1 1 41.666,41.521A2.5,2.5 0 1 1 46.666,41.521Z" style="fill:none;stroke:#F15A60;stroke-width:0.5" />
<path d="M46.666,41.417A2.5,2.5 0 1 1 41.666,41.417A2.5,2.5 0 1 1 46.666,41.417Z" style="fill:none;stroke:#F15A60;stroke-width:0.5" />
<path d="M46.666,41.335A2.5,2.5 0 1 1 41.666,41.335A2.5,2.5 0 1 1 46.666,41.335Z" style="fill:none;stroke:#F15A60;stroke-width:0.5" />
<path d="M46.666,41.271A2.5,2.5 0 1 1 41.666,41.271A2.5,2.5 0 1 1 46.666,41.271Z" style="fill:none;stroke:#F15A60;stroke-width:0.5" />
<path d="M46.666,41.217A2.5,2.5 0 1 1 41.666,41.217A2.5,2.5 0 1 1 46.666,41.217Z" style="fill:none;stroke:#F15A60;stroke-width:0.5" />
<path d="M46.666,41.169A2.5,2.5 0 1 1 41.666,41.169A2.5,2.5 0 1 1 46.666,41.169Z" style="fill:none;stroke:#F15A60;stroke-width:0.5" />
<path d="M46.666,41.134A2.5,2.5 0 1 1 41.666,41.134A2.5,2.5 0 1 1 46.666,41.134Z" style="fill:none;stroke:#F15A60;stroke-width:0.5" />
<path d="M46.666,41.106A2.5,2.5 0 1 1 41.666,41.106A2.5,2.5 0 1 1 46.666,41.106Z" style="fill:none;stroke:#F15A60;stroke-width:0.5" />
<path d="M46.666,41.082A2.5,2.5 0 1 1 41.666,41.082A2.5,2.5 0 1 1 46.666,41.082Z" style="fill:none;stroke:#F15A60;stroke-width:0.5" />
<path d="M46.666,41.063A2.5,2.5 0 1 1 41.666,41.063A2.5,2.5 0 1 1 46.666,41.063Z" style="fill:none;stroke:#F15A60;stroke-width:0.5" />
<path d="M46.666,41.047A2.5,2.5 0 1 1 41.666,41.047A2.5,2.5 0 1 1 46.666,41.047Z" style="fill:none;stroke:#F15A60;stroke-width:0.5" />
<path d="M46.666,41.034A2.5,2.5 0 1 1 41.666,41.034A2.5,2.5 0 1 1 46.666,41.034Z" style="fill:none;stroke:#F15A60;stroke-width:0.5" />
<path d="M46.666,41.024A2.5,2.5 0 1 1 41.666,41.024A2.5,2.5 0 1 1 46.666,41.024Z" style="fill:none;stroke:#F15A60;stroke-width:0.5" />
<path d="M46.666,41.016A2.5,2.5 0 1 1 41.666,41.016A2.5,2.5 0 1 1 46.666,41.016Z" style="fill:none;stroke:#F15A60;stroke-width:0.5" />
<path d="M46.666,41.009A2.5,2.5 0 1 1 41.666,41.009A2.5,2.5 0 1 1 46.666,41.009Z" style="fill:none;stroke:#F15A60;stroke-width:0.5" />
<path d="M46.666,41.003A2.5,2.5 0 1 1 41.666,41.003A2.5,2.5 0 1 1 46.666,41.003Z" style="fill:none;stroke:#F15A60;stroke-width:0.5" />
<path d="M46.666,40.999A2.5,2.5 0 1 1 41.666,40.999A2.5,2.5 0 1 1 46.666,40.999Z" style="fill:none;stroke:#F15A60;stroke-width:0.5" />
<path d="M46.666,40.995A2.5,2.5 0 1 1 41.666,40.995A2.5,2.5 0 1 1 46.666,40.995Z" style="fill:none;stroke:#F15A60;stroke-width:0.5" />
<path d="M46.666,40.992A2.5,2.5 0 1 1 41.666,40.992A2.5,2.5 0 1 1 46.666,40.992Z" style="fill:none;stroke:#F15A60;stroke-width:0.5" />
<path d="M46.666,40.99A2.5,2.5 0 1 1 41.666,40.99A2.5,2.5 0 1 1 46.666,40.99Z" style="fill:none;stroke:#F15A60;stroke-width:0.5" />
<path d="M46.666,40.988A2.5,2.5 0 1 1 41.666,40.988A2.5,2.5 0 1 1 46.666,40.988Z" style="fill:none;stroke:#F15A60;stroke-width:0.5" />
<path d="M46.666,40.986A2.5,2.5 0 1 1 41.666,40.986A2.5,2.5 0 1 1 46.666,40.986Z" style="fill:none;stroke:#F15A60;stroke-width:0.5" />
<path d="M46.666,40.985A2.5,2.5 0 1 1 41.666,40.985A2.5,2.5 0 1 1 46.666,40.985Z" style="fill:none;stroke:#F15A60;stroke-width:0.5" />
<path d="M46.666,40.984A2.5,2.5 0 1 1 41.666,40.984A2.5,2.5 0 1 1 46.666,40.984Z" style="fill:none;stroke:#F15A60;stroke-width:0.5" />
<path d="M46.666,40.983A2.5,2.5 0 1 1 41.666,40.983A2.5,2.5 0 1 1 46.666,40.983Z" style="fill:none;stroke:#F15A60;stroke-width:0.5" />
<path d="M46.666,40.982A2.5,2.5 0 1 1 41.666,40.982A2.5,2.5 0 1 1 46.666,40.982Z" style="fill:none;stroke:#F15A60;stroke-width:0.5" />
<path d="M46.666,40.982A2.5,2.5 0 1 1 41.666,40.982A2.5,2.5 0 1 1 46.666,40.982Z" style="fill:none;stroke:#F15A60;stroke-width:0.5" />
<path d="M46.666,40.981A2.5,2.5 0 1 1 41.666,40.981A2.5,2.5 0 1 1 46.666,40.981Z" style="fill:none;stroke:#F15A60;stroke-width:0.5" />
<path d="M46.666,40.981A2.5,2.5 0 1 1 41.666,40.981A2.5,2.5 0 1 1 46.666,40.981Z" style="fill:none;stroke:#F15A60;stroke-width:0.5" />
<path d="M46.666,40.98A2.5,2.5 0 1 1 41.666,40.98A2.5,2.5 0 1 1 46.666,40.98Z" style="fill:none;stroke:#F15A60;stroke-width:0.5" />
</g>
</svg>
